# xmcd
#
# Track frame offsets:
#	150
#	18418
#	36994
#	56376
#	76154
#	95658
#	118140
#	138380
#	151756
#	167708
#	183742
#	197408
#
# Disc length: 2883 seconds
#
# Revision: 1
# Processed by: cddbd v1.5.2PL0 Copyright (c) Steve Scherf et al.
# Submitted via: audiograbber 1.83.01
#
DISCID=980b410c
DTITLE=Kat Dancer - Baplized By The Mud
DYEAR=2013
DGENRE=
TTITLE0=Sun Get Down
TTITLE1=Sweet Bayboy
TTITLE2=None Of Us Are Free
TTITLE3=Baplized By The Mud
TTITLE4=Crazy For You
TTITLE5=Mary Don´t You Weep
TTITLE6=Winsome, Lonesome
TTITLE7=Noles From The Other Side
TTITLE8=Nothin´ At All
TTITLE9=Prove It On Me Blues
TTITLE10=Hear Me Out, Think It Over
TTITLE11=You Gotta Move
EXTD=
EXTT0=
EXTT1=
EXTT2=
EXTT3=
EXTT4=
EXTT5=
EXTT6=
EXTT7=
EXTT8=
EXTT9=
EXTT10=
EXTT11=
PLAYORDER=
